<svg xmlns="http://www.w3.org/2000/svg" version="1.1" xmlns:xlink="http://www.w3.org/1999/xlink" xmlns:svgjs="http://svgjs.dev/svgjs" width="1000" height="1000" viewBox="0 0 1000 1000"><rect width="1000" height="1000" fill="#ffffff"></rect><g transform="matrix(0.7,0,0,0.7,150.0000000000001,106.25)"><svg viewBox="0 0 320 360" data-background-color="#ffffff" preserveAspectRatio="xMidYMid meet" height="1125" width="1000" xmlns="http://www.w3.org/2000/svg" xmlns:xlink="http://www.w3.org/1999/xlink"><g id="tight-bounds" transform="matrix(1,0,0,1,0,0)"><svg viewBox="0 0 320 360" height="360" width="320"><g><svg></svg></g><g><svg viewBox="0 0 320 360" height="360" width="320"><g><path xmlns="http://www.w3.org/2000/svg" d="M20.961 227.22l3.726 4.658-1.863-6.056c-0.466-2.795-3.726 0.466-1.863 1.398M25.153 224.425c1.397 2.329 2.795 4.658 2.795 6.987 0 3.261 2.795 4.658 5.123 5.589-3.261-3.726-5.124-13.974-7.918-12.576M204.017 26.929c7.918 0 15.371-0.932 23.756 0.931 20.495 5.124 37.729 15.371 49.374 29.811l32.606 52.169c1.397 13.042 4.192 27.482 3.726 43.319 3.261 0 2.795-4.658 6.521-5.59-3.726 9.316-5.59 20.961-6.521 34.469-2.329-7.453 0-18.632 0.466-24.687-3.261 5.124-5.124 1.397-5.124-0.932 0.466-3.726-1.397-3.261-2.795-4.658-5.124-4.658-8.384-9.782-12.11-17.7 2.329-6.055 2.795-14.905-4.658-19.563-2.329-1.397-5.124-3.726-6.521-7.453-1.863-5.124-5.124-11.179-4.193-19.097 0.466-2.329-6.987 5.124-11.179 1.863-18.166-12.576-36.332-27.016-58.224-39.127-11.645 0-20.029-4.192-24.221-9.316-3.726-4.658-0.932-10.713 4.658-11.179 3.261 0 6.987-0.932 9.782 0.932 0.466-1.863 2.329-4.192 4.657-4.192M157.904 16.215l0.932 0.466c4.658 0.932 6.987 7.453 12.11 5.124 0 3.261 0.466 6.521-0.466 8.85-1.397 3.726-5.59 3.726-8.85 3.726-31.208-1.863-49.374 11.179-68.471 22.358-5.124 3.261-10.713 5.59-14.906 9.782-20.029 18.632-41.921 35.866-47.045 70.335l-4.192 38.195c-0.466 4.192-5.124 8.384-4.192 13.508l3.26 22.824c-3.261-3.261-5.124 0.932-4.192 2.795 0.466 1.397 2.329 6.055 5.124 1.863 3.726 6.987 7.453 20.495 12.576 26.55 15.837 18.632 36.332 35.4 53.101 52.169 4.192-0.932 7.453-0.932 8.384-3.727 1.397 2.795-1.397 5.59-3.726 6.056 7.453 4.658 15.837 8.85 27.016 9.781 14.44 0.932 27.948 3.261 40.524 6.522 6.521-1.863 13.042-2.795 20.029-3.261 2.329 0 3.726-3.726 6.521-4.658l0.466-4.658c2.795 4.192 2.329-1.397 0.466-4.192 3.261 2.795 4.192 5.124 5.589 6.987 0-1.397 3.726-6.521 3.727-0.466l0.931-6.055c1.397-0.932 1.863 5.124 3.261 0.931 1.397-4.192 4.192-0.932 6.987-2.329-0.932 1.863-0.466 5.59 2.794 3.261l3.727-3.261c2.329 5.59 6.055 3.261 7.918 2.329 20.495-13.042 40.99-28.413 60.553-43.784l-0.466 6.055 2.329-7.453c2.329 2.329 4.192 0.466 5.124-0.931 2.795-4.658 6.521-9.316 12.577-13.508-7.453 20.029-16.303 35.866-27.482 48.908l-4.658 5.59c0 3.261-0.932 7.453-4.658 7.918-1.863 0.466-5.59-0.932-8.384 1.863-1.397 1.863 3.261 5.59-0.466 2.795-3.261-2.329-6.521 0-10.248 0.932-2.795 0.932 1.863 3.726 2.795 5.589 0.932 1.863 1.863 3.726 1.398 6.056l-5.124-5.59c-6.055 3.261-9.782 9.316-14.906 13.974-2.329 1.863-1.397 5.124-1.397 7.918-3.261 0-6.987-0.932-8.85 0.932-1.397 1.863-0.932 4.658-0.932 7.453-4.658-0.466-5.124-7.453-9.315-6.056-4.192 0.932-8.85 1.397-12.577 3.727 2.795 5.59-4.658 2.329-3.726 3.26-6.987-4.192-13.042-7.453-20.495-4.658-15.837-5.124-35.4-2.795-49.84-0.931 0-2.329 0.466-4.658-0.466-5.124-0.932 2.329-3.726 1.397-3.26 1.397-8.85-6.055-17.7-9.782-27.016-14.905-8.384 0.932-16.303-3.261-18.632-5.59-6.521-6.055-13.974-2.795-20.029-4.192-13.042-3.261-17.7-16.769-19.098-26.084-0.932-4.658-4.658-6.521-6.055-6.056-6.055-19.563-15.371-37.263-22.824-55.429-1.863-4.658-1.397-9.316-1.397-14.44 2.329 0.932 4.658 0.466 4.192-2.794-2.329-15.371-7.918-27.016-13.974-38.195 3.261-15.837 3.726-34.469 11.179-48.443 6.521-12.576 18.632-19.098 27.016-29.811 2.795-3.726 2.795-8.85 5.59-12.11 9.316-9.316 18.632-19.098 28.879-27.482 4.658-3.726 10.247 0 17.234-1.397 2.329-8.384 11.645-15.837 20.495-13.508 3.726 0.932 11.179-8.85 13.508-9.782 3.726-1.397 1.863 3.726 1.863 6.987 8.85-6.987 20.961-10.713 32.14-14.906" fill="#5e1914" fill-rule="nonzero" stroke="none" stroke-width="1" stroke-linecap="butt" stroke-linejoin="miter" stroke-miterlimit="10" stroke-dasharray="" stroke-dashoffset="0" font-family="none" font-weight="none" font-size="none" text-anchor="none" style="mix-blend-mode: normal" data-fill-palette-color="tertiary"></path></g><g transform="matrix(1,0,0,1,64,160.37718802936195)"><svg viewBox="0 0 192 39.245623941276115" height="39.245623941276115" width="192"><g><svg viewBox="0 0 192 39.245623941276115" height="39.245623941276115" width="192"><g><svg viewBox="0 0 192 39.245623941276115" height="39.245623941276115" width="192"><g><svg viewBox="0 0 192 39.245623941276115" height="39.245623941276115" width="192"><g><svg viewBox="0 0 192 39.245623941276115" height="39.245623941276115" width="192"><g><svg viewBox="0 0 192 39.245623941276115" height="39.245623941276115" width="192"><g transform="matrix(1,0,0,1,0,0)"><svg width="192" viewBox="3.3499999046325684 -35.45000076293945 177.08999633789062 36.20000076293945" height="39.245623941276115" data-palette-color="#5e1914"><path d="M23.75-4.8L19.85-4.8Q19.35-6 18.53-7.85 17.7-9.7 16.75-11.85 15.8-14 14.73-16.28 13.65-18.55 12.7-20.58 11.75-22.6 10.93-24.2 10.1-25.8 9.6-26.65L9.6-26.65Q9.05-20.75 8.7-13.88 8.35-7 8.1 0L8.1 0 3.35 0Q3.55-4.5 3.8-9.08 4.05-13.65 4.38-18.07 4.7-22.5 5.08-26.7 5.45-30.9 5.9-34.65L5.9-34.65 10.15-34.65Q11.5-32.45 13.05-29.45 14.6-26.45 16.15-23.18 17.7-19.9 19.15-16.63 20.6-13.35 21.8-10.65L21.8-10.65Q23-13.35 24.45-16.63 25.9-19.9 27.45-23.18 29-26.45 30.55-29.45 32.1-32.45 33.45-34.65L33.45-34.65 37.7-34.65Q39.4-17.9 40.25 0L40.25 0 35.5 0Q35.25-7 34.9-13.88 34.55-20.75 34-26.65L34-26.65Q33.5-25.8 32.68-24.2 31.85-22.6 30.9-20.58 29.95-18.55 28.88-16.28 27.8-14 26.85-11.85 25.9-9.7 25.08-7.85 24.25-6 23.75-4.8L23.75-4.8ZM46.45-17.35L46.45-17.35Q46.45-21.8 47.77-25.2 49.1-28.6 51.37-30.88 53.65-33.15 56.67-34.3 59.7-35.45 63.1-35.45L63.1-35.45Q66.45-35.45 69.42-34.3 72.4-33.15 74.65-30.88 76.9-28.6 78.22-25.2 79.55-21.8 79.55-17.35L79.55-17.35Q79.55-12.9 78.22-9.5 76.9-6.1 74.65-3.83 72.4-1.55 69.42-0.4 66.45 0.75 63.1 0.75L63.1 0.75Q59.7 0.75 56.67-0.4 53.65-1.55 51.37-3.83 49.1-6.1 47.77-9.5 46.45-12.9 46.45-17.35ZM51.55-17.35L51.55-17.35Q51.55-14.2 52.35-11.63 53.15-9.05 54.62-7.25 56.1-5.45 58.22-4.48 60.35-3.5 63-3.5L63-3.5Q65.65-3.5 67.75-4.48 69.85-5.45 71.32-7.25 72.8-9.05 73.6-11.63 74.4-14.2 74.4-17.35L74.4-17.35Q74.4-20.5 73.6-23.08 72.8-25.65 71.32-27.45 69.85-29.25 67.75-30.23 65.65-31.2 63-31.2L63-31.2Q60.35-31.2 58.22-30.23 56.1-29.25 54.62-27.45 53.15-25.65 52.35-23.08 51.55-20.5 51.55-17.35ZM108.55-20.2L108.55-34.65 113.4-34.65 113.4 0 108.55 0 108.55-16 91.6-16 91.6 0 86.75 0 86.75-34.65 91.6-34.65 91.6-20.2 108.55-20.2ZM150.44 0L145.14 0Q144.29-2.25 143.54-4.42 142.79-6.6 141.99-8.85L141.99-8.85 126.29-8.85 123.14 0 118.09 0Q120.09-5.5 121.84-10.18 123.59-14.85 125.27-19.05 126.94-23.25 128.59-27.08 130.24-30.9 132.04-34.65L132.04-34.65 136.49-34.65Q138.29-30.9 139.94-27.08 141.59-23.25 143.27-19.05 144.94-14.85 146.69-10.18 148.44-5.5 150.44 0L150.44 0ZM127.69-12.85L140.59-12.85Q138.99-17.2 137.42-21.28 135.84-25.35 134.14-29.1L134.14-29.1Q132.39-25.35 130.82-21.28 129.24-17.2 127.69-12.85L127.69-12.85ZM164.49 0.3L164.49 0.3Q163.44 0.3 162.22 0.25 160.99 0.2 159.77 0.1 158.54 0 157.34-0.15 156.14-0.3 155.14-0.55L155.14-0.55 155.14-34.15Q156.14-34.4 157.34-34.55 158.54-34.7 159.77-34.8 160.99-34.9 162.19-34.95 163.39-35 164.44-35L164.44-35Q167.44-35 170.07-34.55 172.69-34.1 174.62-33.02 176.54-31.95 177.64-30.2 178.74-28.45 178.74-25.9L178.74-25.9Q178.74-23.05 177.39-21.23 176.04-19.4 173.79-18.5L173.79-18.5Q176.84-17.6 178.64-15.65 180.44-13.7 180.44-10.15L180.44-10.15Q180.44-4.95 176.62-2.33 172.79 0.3 164.49 0.3ZM166.19-16.15L159.94-16.15 159.94-3.95Q160.49-3.9 161.24-3.85L161.24-3.85Q161.89-3.8 162.77-3.78 163.64-3.75 164.79-3.75L164.79-3.75Q166.94-3.75 168.87-4.03 170.79-4.3 172.24-5 173.69-5.7 174.57-6.95 175.44-8.2 175.44-10.1L175.44-10.1Q175.44-11.8 174.79-12.98 174.14-14.15 172.92-14.85 171.69-15.55 169.99-15.85 168.29-16.15 166.19-16.15L166.19-16.15ZM159.94-30.75L159.94-20.05 165.04-20.05Q166.84-20.05 168.44-20.3 170.04-20.55 171.22-21.2 172.39-21.85 173.07-22.9 173.74-23.95 173.74-25.55L173.74-25.55Q173.74-27.05 173.04-28.08 172.34-29.1 171.12-29.73 169.89-30.35 168.24-30.65 166.59-30.95 164.74-30.95L164.74-30.95Q162.89-30.95 161.84-30.9 160.79-30.85 159.94-30.75L159.94-30.75Z" opacity="1" transform="matrix(1,0,0,1,0,0)" fill="#5e1914" class="undefined-text-0" data-fill-palette-color="primary" id="text-0"></path></svg></g></svg></g></svg></g></svg></g><g></g></svg></g></svg></g></svg></g></svg></g><defs></defs></svg><rect width="320" height="360" fill="none" stroke="none" visibility="hidden"></rect></g></svg></g></svg>